<?xml version="1.0" standalone="no"?>
<svg xmlns="http://www.w3.org/2000/svg" version="1.1" width="225" height="225">
	<!-- Created with https://api.qrserver.com (QR Code API, see goQR.me/api for information) -->
	<title>QR Code</title>
	<desc>BEGIN:VCARD
VERSION:2.1
FN:Luka Perhat
N:Perhat;Luka
TEL;WORK;VOICE:0989552919
EMAIL;WORK;INTERNET:dl.perhat@gmail.com
URL:dl-webs.com
ORG:DL WEBS
END:VCARD
</desc>
	<rect style="fill:rgb(50, 115, 220);fill-opacity:1" x="0" y="0" width="225" height="225" />
	<g id="elements">
		<path style="fill:rgb(255, 255, 254)" d="M 0,0 l 5,0 0,5 -5,0 z M 5,0 l 5,0 0,5 -5,0 z M 10,0 l 5,0 0,5 -5,0 z M 15,0 l 5,0 0,5 -5,0 z M 20,0 l 5,0 0,5 -5,0 z M 25,0 l 5,0 0,5 -5,0 z M 30,0 l 5,0 0,5 -5,0 z M 45,0 l 5,0 0,5 -5,0 z M 60,0 l 5,0 0,5 -5,0 z M 65,0 l 5,0 0,5 -5,0 z M 80,0 l 5,0 0,5 -5,0 z M 90,0 l 5,0 0,5 -5,0 z M 95,0 l 5,0 0,5 -5,0 z M 105,0 l 5,0 0,5 -5,0 z M 125,0 l 5,0 0,5 -5,0 z M 135,0 l 5,0 0,5 -5,0 z M 150,0 l 5,0 0,5 -5,0 z M 155,0 l 5,0 0,5 -5,0 z M 180,0 l 5,0 0,5 -5,0 z M 190,0 l 5,0 0,5 -5,0 z M 195,0 l 5,0 0,5 -5,0 z M 200,0 l 5,0 0,5 -5,0 z M 205,0 l 5,0 0,5 -5,0 z M 210,0 l 5,0 0,5 -5,0 z M 215,0 l 5,0 0,5 -5,0 z M 220,0 l 5,0 0,5 -5,0 z M 0,5 l 5,0 0,5 -5,0 z M 30,5 l 5,0 0,5 -5,0 z M 40,5 l 5,0 0,5 -5,0 z M 50,5 l 5,0 0,5 -5,0 z M 55,5 l 5,0 0,5 -5,0 z M 60,5 l 5,0 0,5 -5,0 z M 70,5 l 5,0 0,5 -5,0 z M 90,5 l 5,0 0,5 -5,0 z M 110,5 l 5,0 0,5 -5,0 z M 115,5 l 5,0 0,5 -5,0 z M 120,5 l 5,0 0,5 -5,0 z M 130,5 l 5,0 0,5 -5,0 z M 135,5 l 5,0 0,5 -5,0 z M 175,5 l 5,0 0,5 -5,0 z M 190,5 l 5,0 0,5 -5,0 z M 220,5 l 5,0 0,5 -5,0 z M 0,10 l 5,0 0,5 -5,0 z M 10,10 l 5,0 0,5 -5,0 z M 15,10 l 5,0 0,5 -5,0 z M 20,10 l 5,0 0,5 -5,0 z M 30,10 l 5,0 0,5 -5,0 z M 50,10 l 5,0 0,5 -5,0 z M 65,10 l 5,0 0,5 -5,0 z M 70,10 l 5,0 0,5 -5,0 z M 75,10 l 5,0 0,5 -5,0 z M 80,10 l 5,0 0,5 -5,0 z M 95,10 l 5,0 0,5 -5,0 z M 100,10 l 5,0 0,5 -5,0 z M 105,10 l 5,0 0,5 -5,0 z M 115,10 l 5,0 0,5 -5,0 z M 135,10 l 5,0 0,5 -5,0 z M 140,10 l 5,0 0,5 -5,0 z M 160,10 l 5,0 0,5 -5,0 z M 165,10 l 5,0 0,5 -5,0 z M 175,10 l 5,0 0,5 -5,0 z M 190,10 l 5,0 0,5 -5,0 z M 200,10 l 5,0 0,5 -5,0 z M 205,10 l 5,0 0,5 -5,0 z M 210,10 l 5,0 0,5 -5,0 z M 220,10 l 5,0 0,5 -5,0 z M 0,15 l 5,0 0,5 -5,0 z M 10,15 l 5,0 0,5 -5,0 z M 15,15 l 5,0 0,5 -5,0 z M 20,15 l 5,0 0,5 -5,0 z M 30,15 l 5,0 0,5 -5,0 z M 40,15 l 5,0 0,5 -5,0 z M 55,15 l 5,0 0,5 -5,0 z M 70,15 l 5,0 0,5 -5,0 z M 75,15 l 5,0 0,5 -5,0 z M 85,15 l 5,0 0,5 -5,0 z M 90,15 l 5,0 0,5 -5,0 z M 95,15 l 5,0 0,5 -5,0 z M 125,15 l 5,0 0,5 -5,0 z M 145,15 l 5,0 0,5 -5,0 z M 155,15 l 5,0 0,5 -5,0 z M 175,15 l 5,0 0,5 -5,0 z M 180,15 l 5,0 0,5 -5,0 z M 190,15 l 5,0 0,5 -5,0 z M 200,15 l 5,0 0,5 -5,0 z M 205,15 l 5,0 0,5 -5,0 z M 210,15 l 5,0 0,5 -5,0 z M 220,15 l 5,0 0,5 -5,0 z M 0,20 l 5,0 0,5 -5,0 z M 10,20 l 5,0 0,5 -5,0 z M 15,20 l 5,0 0,5 -5,0 z M 20,20 l 5,0 0,5 -5,0 z M 30,20 l 5,0 0,5 -5,0 z M 45,20 l 5,0 0,5 -5,0 z M 65,20 l 5,0 0,5 -5,0 z M 70,20 l 5,0 0,5 -5,0 z M 75,20 l 5,0 0,5 -5,0 z M 80,20 l 5,0 0,5 -5,0 z M 90,20 l 5,0 0,5 -5,0 z M 95,20 l 5,0 0,5 -5,0 z M 100,20 l 5,0 0,5 -5,0 z M 105,20 l 5,0 0,5 -5,0 z M 110,20 l 5,0 0,5 -5,0 z M 115,20 l 5,0 0,5 -5,0 z M 120,20 l 5,0 0,5 -5,0 z M 125,20 l 5,0 0,5 -5,0 z M 130,20 l 5,0 0,5 -5,0 z M 135,20 l 5,0 0,5 -5,0 z M 140,20 l 5,0 0,5 -5,0 z M 150,20 l 5,0 0,5 -5,0 z M 155,20 l 5,0 0,5 -5,0 z M 160,20 l 5,0 0,5 -5,0 z M 170,20 l 5,0 0,5 -5,0 z M 175,20 l 5,0 0,5 -5,0 z M 180,20 l 5,0 0,5 -5,0 z M 190,20 l 5,0 0,5 -5,0 z M 200,20 l 5,0 0,5 -5,0 z M 205,20 l 5,0 0,5 -5,0 z M 210,20 l 5,0 0,5 -5,0 z M 220,20 l 5,0 0,5 -5,0 z M 0,25 l 5,0 0,5 -5,0 z M 30,25 l 5,0 0,5 -5,0 z M 40,25 l 5,0 0,5 -5,0 z M 55,25 l 5,0 0,5 -5,0 z M 65,25 l 5,0 0,5 -5,0 z M 100,25 l 5,0 0,5 -5,0 z M 120,25 l 5,0 0,5 -5,0 z M 125,25 l 5,0 0,5 -5,0 z M 135,25 l 5,0 0,5 -5,0 z M 150,25 l 5,0 0,5 -5,0 z M 160,25 l 5,0 0,5 -5,0 z M 165,25 l 5,0 0,5 -5,0 z M 190,25 l 5,0 0,5 -5,0 z M 220,25 l 5,0 0,5 -5,0 z M 0,30 l 5,0 0,5 -5,0 z M 5,30 l 5,0 0,5 -5,0 z M 10,30 l 5,0 0,5 -5,0 z M 15,30 l 5,0 0,5 -5,0 z M 20,30 l 5,0 0,5 -5,0 z M 25,30 l 5,0 0,5 -5,0 z M 30,30 l 5,0 0,5 -5,0 z M 40,30 l 5,0 0,5 -5,0 z M 50,30 l 5,0 0,5 -5,0 z M 60,30 l 5,0 0,5 -5,0 z M 70,30 l 5,0 0,5 -5,0 z M 80,30 l 5,0 0,5 -5,0 z M 90,30 l 5,0 0,5 -5,0 z M 100,30 l 5,0 0,5 -5,0 z M 110,30 l 5,0 0,5 -5,0 z M 120,30 l 5,0 0,5 -5,0 z M 130,30 l 5,0 0,5 -5,0 z M 140,30 l 5,0 0,5 -5,0 z M 150,30 l 5,0 0,5 -5,0 z M 160,30 l 5,0 0,5 -5,0 z M 170,30 l 5,0 0,5 -5,0 z M 180,30 l 5,0 0,5 -5,0 z M 190,30 l 5,0 0,5 -5,0 z M 195,30 l 5,0 0,5 -5,0 z M 200,30 l 5,0 0,5 -5,0 z M 205,30 l 5,0 0,5 -5,0 z M 210,30 l 5,0 0,5 -5,0 z M 215,30 l 5,0 0,5 -5,0 z M 220,30 l 5,0 0,5 -5,0 z M 45,35 l 5,0 0,5 -5,0 z M 55,35 l 5,0 0,5 -5,0 z M 70,35 l 5,0 0,5 -5,0 z M 75,35 l 5,0 0,5 -5,0 z M 85,35 l 5,0 0,5 -5,0 z M 95,35 l 5,0 0,5 -5,0 z M 100,35 l 5,0 0,5 -5,0 z M 120,35 l 5,0 0,5 -5,0 z M 125,35 l 5,0 0,5 -5,0 z M 150,35 l 5,0 0,5 -5,0 z M 160,35 l 5,0 0,5 -5,0 z M 165,35 l 5,0 0,5 -5,0 z M 180,35 l 5,0 0,5 -5,0 z M 0,40 l 5,0 0,5 -5,0 z M 5,40 l 5,0 0,5 -5,0 z M 10,40 l 5,0 0,5 -5,0 z M 15,40 l 5,0 0,5 -5,0 z M 20,40 l 5,0 0,5 -5,0 z M 30,40 l 5,0 0,5 -5,0 z M 35,40 l 5,0 0,5 -5,0 z M 40,40 l 5,0 0,5 -5,0 z M 45,40 l 5,0 0,5 -5,0 z M 55,40 l 5,0 0,5 -5,0 z M 60,40 l 5,0 0,5 -5,0 z M 70,40 l 5,0 0,5 -5,0 z M 75,40 l 5,0 0,5 -5,0 z M 80,40 l 5,0 0,5 -5,0 z M 85,40 l 5,0 0,5 -5,0 z M 95,40 l 5,0 0,5 -5,0 z M 100,40 l 5,0 0,5 -5,0 z M 105,40 l 5,0 0,5 -5,0 z M 110,40 l 5,0 0,5 -5,0 z M 115,40 l 5,0 0,5 -5,0 z M 120,40 l 5,0 0,5 -5,0 z M 125,40 l 5,0 0,5 -5,0 z M 150,40 l 5,0 0,5 -5,0 z M 155,40 l 5,0 0,5 -5,0 z M 165,40 l 5,0 0,5 -5,0 z M 175,40 l 5,0 0,5 -5,0 z M 180,40 l 5,0 0,5 -5,0 z M 185,40 l 5,0 0,5 -5,0 z M 195,40 l 5,0 0,5 -5,0 z M 205,40 l 5,0 0,5 -5,0 z M 215,40 l 5,0 0,5 -5,0 z M 0,45 l 5,0 0,5 -5,0 z M 5,45 l 5,0 0,5 -5,0 z M 25,45 l 5,0 0,5 -5,0 z M 35,45 l 5,0 0,5 -5,0 z M 40,45 l 5,0 0,5 -5,0 z M 45,45 l 5,0 0,5 -5,0 z M 65,45 l 5,0 0,5 -5,0 z M 70,45 l 5,0 0,5 -5,0 z M 75,45 l 5,0 0,5 -5,0 z M 80,45 l 5,0 0,5 -5,0 z M 85,45 l 5,0 0,5 -5,0 z M 90,45 l 5,0 0,5 -5,0 z M 95,45 l 5,0 0,5 -5,0 z M 100,45 l 5,0 0,5 -5,0 z M 105,45 l 5,0 0,5 -5,0 z M 115,45 l 5,0 0,5 -5,0 z M 125,45 l 5,0 0,5 -5,0 z M 135,45 l 5,0 0,5 -5,0 z M 140,45 l 5,0 0,5 -5,0 z M 145,45 l 5,0 0,5 -5,0 z M 150,45 l 5,0 0,5 -5,0 z M 155,45 l 5,0 0,5 -5,0 z M 160,45 l 5,0 0,5 -5,0 z M 165,45 l 5,0 0,5 -5,0 z M 180,45 l 5,0 0,5 -5,0 z M 195,45 l 5,0 0,5 -5,0 z M 205,45 l 5,0 0,5 -5,0 z M 210,45 l 5,0 0,5 -5,0 z M 0,50 l 5,0 0,5 -5,0 z M 15,50 l 5,0 0,5 -5,0 z M 20,50 l 5,0 0,5 -5,0 z M 30,50 l 5,0 0,5 -5,0 z M 40,50 l 5,0 0,5 -5,0 z M 50,50 l 5,0 0,5 -5,0 z M 60,50 l 5,0 0,5 -5,0 z M 70,50 l 5,0 0,5 -5,0 z M 95,50 l 5,0 0,5 -5,0 z M 100,50 l 5,0 0,5 -5,0 z M 115,50 l 5,0 0,5 -5,0 z M 120,50 l 5,0 0,5 -5,0 z M 125,50 l 5,0 0,5 -5,0 z M 130,50 l 5,0 0,5 -5,0 z M 135,50 l 5,0 0,5 -5,0 z M 140,50 l 5,0 0,5 -5,0 z M 145,50 l 5,0 0,5 -5,0 z M 150,50 l 5,0 0,5 -5,0 z M 160,50 l 5,0 0,5 -5,0 z M 185,50 l 5,0 0,5 -5,0 z M 195,50 l 5,0 0,5 -5,0 z M 200,50 l 5,0 0,5 -5,0 z M 205,50 l 5,0 0,5 -5,0 z M 210,50 l 5,0 0,5 -5,0 z M 0,55 l 5,0 0,5 -5,0 z M 5,55 l 5,0 0,5 -5,0 z M 35,55 l 5,0 0,5 -5,0 z M 40,55 l 5,0 0,5 -5,0 z M 45,55 l 5,0 0,5 -5,0 z M 50,55 l 5,0 0,5 -5,0 z M 55,55 l 5,0 0,5 -5,0 z M 65,55 l 5,0 0,5 -5,0 z M 70,55 l 5,0 0,5 -5,0 z M 75,55 l 5,0 0,5 -5,0 z M 85,55 l 5,0 0,5 -5,0 z M 95,55 l 5,0 0,5 -5,0 z M 100,55 l 5,0 0,5 -5,0 z M 105,55 l 5,0 0,5 -5,0 z M 115,55 l 5,0 0,5 -5,0 z M 120,55 l 5,0 0,5 -5,0 z M 155,55 l 5,0 0,5 -5,0 z M 160,55 l 5,0 0,5 -5,0 z M 165,55 l 5,0 0,5 -5,0 z M 180,55 l 5,0 0,5 -5,0 z M 190,55 l 5,0 0,5 -5,0 z M 195,55 l 5,0 0,5 -5,0 z M 200,55 l 5,0 0,5 -5,0 z M 205,55 l 5,0 0,5 -5,0 z M 215,55 l 5,0 0,5 -5,0 z M 0,60 l 5,0 0,5 -5,0 z M 5,60 l 5,0 0,5 -5,0 z M 10,60 l 5,0 0,5 -5,0 z M 15,60 l 5,0 0,5 -5,0 z M 20,60 l 5,0 0,5 -5,0 z M 30,60 l 5,0 0,5 -5,0 z M 35,60 l 5,0 0,5 -5,0 z M 40,60 l 5,0 0,5 -5,0 z M 45,60 l 5,0 0,5 -5,0 z M 50,60 l 5,0 0,5 -5,0 z M 55,60 l 5,0 0,5 -5,0 z M 60,60 l 5,0 0,5 -5,0 z M 65,60 l 5,0 0,5 -5,0 z M 75,60 l 5,0 0,5 -5,0 z M 80,60 l 5,0 0,5 -5,0 z M 90,60 l 5,0 0,5 -5,0 z M 100,60 l 5,0 0,5 -5,0 z M 105,60 l 5,0 0,5 -5,0 z M 125,60 l 5,0 0,5 -5,0 z M 130,60 l 5,0 0,5 -5,0 z M 135,60 l 5,0 0,5 -5,0 z M 140,60 l 5,0 0,5 -5,0 z M 145,60 l 5,0 0,5 -5,0 z M 185,60 l 5,0 0,5 -5,0 z M 205,60 l 5,0 0,5 -5,0 z M 210,60 l 5,0 0,5 -5,0 z M 215,60 l 5,0 0,5 -5,0 z M 5,65 l 5,0 0,5 -5,0 z M 10,65 l 5,0 0,5 -5,0 z M 20,65 l 5,0 0,5 -5,0 z M 40,65 l 5,0 0,5 -5,0 z M 50,65 l 5,0 0,5 -5,0 z M 60,65 l 5,0 0,5 -5,0 z M 75,65 l 5,0 0,5 -5,0 z M 80,65 l 5,0 0,5 -5,0 z M 85,65 l 5,0 0,5 -5,0 z M 100,65 l 5,0 0,5 -5,0 z M 105,65 l 5,0 0,5 -5,0 z M 110,65 l 5,0 0,5 -5,0 z M 135,65 l 5,0 0,5 -5,0 z M 140,65 l 5,0 0,5 -5,0 z M 145,65 l 5,0 0,5 -5,0 z M 150,65 l 5,0 0,5 -5,0 z M 155,65 l 5,0 0,5 -5,0 z M 160,65 l 5,0 0,5 -5,0 z M 180,65 l 5,0 0,5 -5,0 z M 195,65 l 5,0 0,5 -5,0 z M 205,65 l 5,0 0,5 -5,0 z M 215,65 l 5,0 0,5 -5,0 z M 0,70 l 5,0 0,5 -5,0 z M 10,70 l 5,0 0,5 -5,0 z M 15,70 l 5,0 0,5 -5,0 z M 20,70 l 5,0 0,5 -5,0 z M 25,70 l 5,0 0,5 -5,0 z M 30,70 l 5,0 0,5 -5,0 z M 35,70 l 5,0 0,5 -5,0 z M 45,70 l 5,0 0,5 -5,0 z M 55,70 l 5,0 0,5 -5,0 z M 65,70 l 5,0 0,5 -5,0 z M 70,70 l 5,0 0,5 -5,0 z M 75,70 l 5,0 0,5 -5,0 z M 110,70 l 5,0 0,5 -5,0 z M 115,70 l 5,0 0,5 -5,0 z M 120,70 l 5,0 0,5 -5,0 z M 130,70 l 5,0 0,5 -5,0 z M 135,70 l 5,0 0,5 -5,0 z M 140,70 l 5,0 0,5 -5,0 z M 150,70 l 5,0 0,5 -5,0 z M 170,70 l 5,0 0,5 -5,0 z M 175,70 l 5,0 0,5 -5,0 z M 185,70 l 5,0 0,5 -5,0 z M 190,70 l 5,0 0,5 -5,0 z M 195,70 l 5,0 0,5 -5,0 z M 205,70 l 5,0 0,5 -5,0 z M 210,70 l 5,0 0,5 -5,0 z M 215,70 l 5,0 0,5 -5,0 z M 220,70 l 5,0 0,5 -5,0 z M 0,75 l 5,0 0,5 -5,0 z M 5,75 l 5,0 0,5 -5,0 z M 20,75 l 5,0 0,5 -5,0 z M 25,75 l 5,0 0,5 -5,0 z M 45,75 l 5,0 0,5 -5,0 z M 55,75 l 5,0 0,5 -5,0 z M 60,75 l 5,0 0,5 -5,0 z M 65,75 l 5,0 0,5 -5,0 z M 70,75 l 5,0 0,5 -5,0 z M 75,75 l 5,0 0,5 -5,0 z M 85,75 l 5,0 0,5 -5,0 z M 90,75 l 5,0 0,5 -5,0 z M 95,75 l 5,0 0,5 -5,0 z M 115,75 l 5,0 0,5 -5,0 z M 120,75 l 5,0 0,5 -5,0 z M 140,75 l 5,0 0,5 -5,0 z M 150,75 l 5,0 0,5 -5,0 z M 160,75 l 5,0 0,5 -5,0 z M 180,75 l 5,0 0,5 -5,0 z M 185,75 l 5,0 0,5 -5,0 z M 195,75 l 5,0 0,5 -5,0 z M 205,75 l 5,0 0,5 -5,0 z M 220,75 l 5,0 0,5 -5,0 z M 0,80 l 5,0 0,5 -5,0 z M 10,80 l 5,0 0,5 -5,0 z M 15,80 l 5,0 0,5 -5,0 z M 25,80 l 5,0 0,5 -5,0 z M 30,80 l 5,0 0,5 -5,0 z M 50,80 l 5,0 0,5 -5,0 z M 70,80 l 5,0 0,5 -5,0 z M 85,80 l 5,0 0,5 -5,0 z M 95,80 l 5,0 0,5 -5,0 z M 100,80 l 5,0 0,5 -5,0 z M 110,80 l 5,0 0,5 -5,0 z M 115,80 l 5,0 0,5 -5,0 z M 120,80 l 5,0 0,5 -5,0 z M 130,80 l 5,0 0,5 -5,0 z M 135,80 l 5,0 0,5 -5,0 z M 150,80 l 5,0 0,5 -5,0 z M 155,80 l 5,0 0,5 -5,0 z M 165,80 l 5,0 0,5 -5,0 z M 185,80 l 5,0 0,5 -5,0 z M 190,80 l 5,0 0,5 -5,0 z M 195,80 l 5,0 0,5 -5,0 z M 200,80 l 5,0 0,5 -5,0 z M 215,80 l 5,0 0,5 -5,0 z M 220,80 l 5,0 0,5 -5,0 z M 15,85 l 5,0 0,5 -5,0 z M 40,85 l 5,0 0,5 -5,0 z M 50,85 l 5,0 0,5 -5,0 z M 60,85 l 5,0 0,5 -5,0 z M 65,85 l 5,0 0,5 -5,0 z M 85,85 l 5,0 0,5 -5,0 z M 90,85 l 5,0 0,5 -5,0 z M 95,85 l 5,0 0,5 -5,0 z M 105,85 l 5,0 0,5 -5,0 z M 110,85 l 5,0 0,5 -5,0 z M 115,85 l 5,0 0,5 -5,0 z M 120,85 l 5,0 0,5 -5,0 z M 125,85 l 5,0 0,5 -5,0 z M 135,85 l 5,0 0,5 -5,0 z M 140,85 l 5,0 0,5 -5,0 z M 145,85 l 5,0 0,5 -5,0 z M 150,85 l 5,0 0,5 -5,0 z M 155,85 l 5,0 0,5 -5,0 z M 165,85 l 5,0 0,5 -5,0 z M 175,85 l 5,0 0,5 -5,0 z M 185,85 l 5,0 0,5 -5,0 z M 195,85 l 5,0 0,5 -5,0 z M 200,85 l 5,0 0,5 -5,0 z M 210,85 l 5,0 0,5 -5,0 z M 0,90 l 5,0 0,5 -5,0 z M 20,90 l 5,0 0,5 -5,0 z M 25,90 l 5,0 0,5 -5,0 z M 30,90 l 5,0 0,5 -5,0 z M 40,90 l 5,0 0,5 -5,0 z M 45,90 l 5,0 0,5 -5,0 z M 55,90 l 5,0 0,5 -5,0 z M 70,90 l 5,0 0,5 -5,0 z M 95,90 l 5,0 0,5 -5,0 z M 105,90 l 5,0 0,5 -5,0 z M 110,90 l 5,0 0,5 -5,0 z M 130,90 l 5,0 0,5 -5,0 z M 140,90 l 5,0 0,5 -5,0 z M 155,90 l 5,0 0,5 -5,0 z M 165,90 l 5,0 0,5 -5,0 z M 170,90 l 5,0 0,5 -5,0 z M 190,90 l 5,0 0,5 -5,0 z M 195,90 l 5,0 0,5 -5,0 z M 205,90 l 5,0 0,5 -5,0 z M 215,90 l 5,0 0,5 -5,0 z M 220,90 l 5,0 0,5 -5,0 z M 0,95 l 5,0 0,5 -5,0 z M 5,95 l 5,0 0,5 -5,0 z M 20,95 l 5,0 0,5 -5,0 z M 25,95 l 5,0 0,5 -5,0 z M 40,95 l 5,0 0,5 -5,0 z M 45,95 l 5,0 0,5 -5,0 z M 75,95 l 5,0 0,5 -5,0 z M 80,95 l 5,0 0,5 -5,0 z M 85,95 l 5,0 0,5 -5,0 z M 100,95 l 5,0 0,5 -5,0 z M 115,95 l 5,0 0,5 -5,0 z M 135,95 l 5,0 0,5 -5,0 z M 140,95 l 5,0 0,5 -5,0 z M 165,95 l 5,0 0,5 -5,0 z M 175,95 l 5,0 0,5 -5,0 z M 180,95 l 5,0 0,5 -5,0 z M 185,95 l 5,0 0,5 -5,0 z M 190,95 l 5,0 0,5 -5,0 z M 205,95 l 5,0 0,5 -5,0 z M 215,95 l 5,0 0,5 -5,0 z M 5,100 l 5,0 0,5 -5,0 z M 20,100 l 5,0 0,5 -5,0 z M 25,100 l 5,0 0,5 -5,0 z M 30,100 l 5,0 0,5 -5,0 z M 35,100 l 5,0 0,5 -5,0 z M 40,100 l 5,0 0,5 -5,0 z M 60,100 l 5,0 0,5 -5,0 z M 65,100 l 5,0 0,5 -5,0 z M 70,100 l 5,0 0,5 -5,0 z M 75,100 l 5,0 0,5 -5,0 z M 90,100 l 5,0 0,5 -5,0 z M 100,100 l 5,0 0,5 -5,0 z M 105,100 l 5,0 0,5 -5,0 z M 110,100 l 5,0 0,5 -5,0 z M 115,100 l 5,0 0,5 -5,0 z M 120,100 l 5,0 0,5 -5,0 z M 125,100 l 5,0 0,5 -5,0 z M 130,100 l 5,0 0,5 -5,0 z M 135,100 l 5,0 0,5 -5,0 z M 140,100 l 5,0 0,5 -5,0 z M 145,100 l 5,0 0,5 -5,0 z M 170,100 l 5,0 0,5 -5,0 z M 180,100 l 5,0 0,5 -5,0 z M 185,100 l 5,0 0,5 -5,0 z M 190,100 l 5,0 0,5 -5,0 z M 195,100 l 5,0 0,5 -5,0 z M 200,100 l 5,0 0,5 -5,0 z M 205,100 l 5,0 0,5 -5,0 z M 210,100 l 5,0 0,5 -5,0 z M 215,100 l 5,0 0,5 -5,0 z M 0,105 l 5,0 0,5 -5,0 z M 5,105 l 5,0 0,5 -5,0 z M 10,105 l 5,0 0,5 -5,0 z M 20,105 l 5,0 0,5 -5,0 z M 40,105 l 5,0 0,5 -5,0 z M 45,105 l 5,0 0,5 -5,0 z M 50,105 l 5,0 0,5 -5,0 z M 70,105 l 5,0 0,5 -5,0 z M 95,105 l 5,0 0,5 -5,0 z M 100,105 l 5,0 0,5 -5,0 z M 120,105 l 5,0 0,5 -5,0 z M 125,105 l 5,0 0,5 -5,0 z M 135,105 l 5,0 0,5 -5,0 z M 140,105 l 5,0 0,5 -5,0 z M 145,105 l 5,0 0,5 -5,0 z M 150,105 l 5,0 0,5 -5,0 z M 160,105 l 5,0 0,5 -5,0 z M 165,105 l 5,0 0,5 -5,0 z M 170,105 l 5,0 0,5 -5,0 z M 175,105 l 5,0 0,5 -5,0 z M 180,105 l 5,0 0,5 -5,0 z M 200,105 l 5,0 0,5 -5,0 z M 5,110 l 5,0 0,5 -5,0 z M 15,110 l 5,0 0,5 -5,0 z M 20,110 l 5,0 0,5 -5,0 z M 30,110 l 5,0 0,5 -5,0 z M 40,110 l 5,0 0,5 -5,0 z M 50,110 l 5,0 0,5 -5,0 z M 55,110 l 5,0 0,5 -5,0 z M 65,110 l 5,0 0,5 -5,0 z M 70,110 l 5,0 0,5 -5,0 z M 75,110 l 5,0 0,5 -5,0 z M 90,110 l 5,0 0,5 -5,0 z M 100,110 l 5,0 0,5 -5,0 z M 110,110 l 5,0 0,5 -5,0 z M 120,110 l 5,0 0,5 -5,0 z M 130,110 l 5,0 0,5 -5,0 z M 135,110 l 5,0 0,5 -5,0 z M 165,110 l 5,0 0,5 -5,0 z M 180,110 l 5,0 0,5 -5,0 z M 190,110 l 5,0 0,5 -5,0 z M 200,110 l 5,0 0,5 -5,0 z M 205,110 l 5,0 0,5 -5,0 z M 0,115 l 5,0 0,5 -5,0 z M 15,115 l 5,0 0,5 -5,0 z M 20,115 l 5,0 0,5 -5,0 z M 40,115 l 5,0 0,5 -5,0 z M 50,115 l 5,0 0,5 -5,0 z M 55,115 l 5,0 0,5 -5,0 z M 65,115 l 5,0 0,5 -5,0 z M 75,115 l 5,0 0,5 -5,0 z M 80,115 l 5,0 0,5 -5,0 z M 85,115 l 5,0 0,5 -5,0 z M 90,115 l 5,0 0,5 -5,0 z M 100,115 l 5,0 0,5 -5,0 z M 120,115 l 5,0 0,5 -5,0 z M 130,115 l 5,0 0,5 -5,0 z M 135,115 l 5,0 0,5 -5,0 z M 145,115 l 5,0 0,5 -5,0 z M 150,115 l 5,0 0,5 -5,0 z M 155,115 l 5,0 0,5 -5,0 z M 160,115 l 5,0 0,5 -5,0 z M 180,115 l 5,0 0,5 -5,0 z M 200,115 l 5,0 0,5 -5,0 z M 205,115 l 5,0 0,5 -5,0 z M 215,115 l 5,0 0,5 -5,0 z M 220,115 l 5,0 0,5 -5,0 z M 15,120 l 5,0 0,5 -5,0 z M 20,120 l 5,0 0,5 -5,0 z M 25,120 l 5,0 0,5 -5,0 z M 30,120 l 5,0 0,5 -5,0 z M 35,120 l 5,0 0,5 -5,0 z M 40,120 l 5,0 0,5 -5,0 z M 50,120 l 5,0 0,5 -5,0 z M 60,120 l 5,0 0,5 -5,0 z M 65,120 l 5,0 0,5 -5,0 z M 70,120 l 5,0 0,5 -5,0 z M 75,120 l 5,0 0,5 -5,0 z M 85,120 l 5,0 0,5 -5,0 z M 90,120 l 5,0 0,5 -5,0 z M 95,120 l 5,0 0,5 -5,0 z M 100,120 l 5,0 0,5 -5,0 z M 105,120 l 5,0 0,5 -5,0 z M 110,120 l 5,0 0,5 -5,0 z M 115,120 l 5,0 0,5 -5,0 z M 120,120 l 5,0 0,5 -5,0 z M 145,120 l 5,0 0,5 -5,0 z M 150,120 l 5,0 0,5 -5,0 z M 155,120 l 5,0 0,5 -5,0 z M 170,120 l 5,0 0,5 -5,0 z M 175,120 l 5,0 0,5 -5,0 z M 180,120 l 5,0 0,5 -5,0 z M 185,120 l 5,0 0,5 -5,0 z M 190,120 l 5,0 0,5 -5,0 z M 195,120 l 5,0 0,5 -5,0 z M 200,120 l 5,0 0,5 -5,0 z M 205,120 l 5,0 0,5 -5,0 z M 0,125 l 5,0 0,5 -5,0 z M 20,125 l 5,0 0,5 -5,0 z M 25,125 l 5,0 0,5 -5,0 z M 45,125 l 5,0 0,5 -5,0 z M 55,125 l 5,0 0,5 -5,0 z M 65,125 l 5,0 0,5 -5,0 z M 75,125 l 5,0 0,5 -5,0 z M 90,125 l 5,0 0,5 -5,0 z M 100,125 l 5,0 0,5 -5,0 z M 120,125 l 5,0 0,5 -5,0 z M 125,125 l 5,0 0,5 -5,0 z M 135,125 l 5,0 0,5 -5,0 z M 140,125 l 5,0 0,5 -5,0 z M 145,125 l 5,0 0,5 -5,0 z M 150,125 l 5,0 0,5 -5,0 z M 165,125 l 5,0 0,5 -5,0 z M 180,125 l 5,0 0,5 -5,0 z M 200,125 l 5,0 0,5 -5,0 z M 205,125 l 5,0 0,5 -5,0 z M 210,125 l 5,0 0,5 -5,0 z M 215,125 l 5,0 0,5 -5,0 z M 0,130 l 5,0 0,5 -5,0 z M 10,130 l 5,0 0,5 -5,0 z M 25,130 l 5,0 0,5 -5,0 z M 30,130 l 5,0 0,5 -5,0 z M 45,130 l 5,0 0,5 -5,0 z M 50,130 l 5,0 0,5 -5,0 z M 65,130 l 5,0 0,5 -5,0 z M 75,130 l 5,0 0,5 -5,0 z M 90,130 l 5,0 0,5 -5,0 z M 100,130 l 5,0 0,5 -5,0 z M 105,130 l 5,0 0,5 -5,0 z M 110,130 l 5,0 0,5 -5,0 z M 115,130 l 5,0 0,5 -5,0 z M 130,130 l 5,0 0,5 -5,0 z M 135,130 l 5,0 0,5 -5,0 z M 140,130 l 5,0 0,5 -5,0 z M 145,130 l 5,0 0,5 -5,0 z M 155,130 l 5,0 0,5 -5,0 z M 160,130 l 5,0 0,5 -5,0 z M 165,130 l 5,0 0,5 -5,0 z M 180,130 l 5,0 0,5 -5,0 z M 185,130 l 5,0 0,5 -5,0 z M 190,130 l 5,0 0,5 -5,0 z M 195,130 l 5,0 0,5 -5,0 z M 200,130 l 5,0 0,5 -5,0 z M 210,130 l 5,0 0,5 -5,0 z M 215,130 l 5,0 0,5 -5,0 z M 220,130 l 5,0 0,5 -5,0 z M 10,135 l 5,0 0,5 -5,0 z M 20,135 l 5,0 0,5 -5,0 z M 25,135 l 5,0 0,5 -5,0 z M 55,135 l 5,0 0,5 -5,0 z M 65,135 l 5,0 0,5 -5,0 z M 90,135 l 5,0 0,5 -5,0 z M 95,135 l 5,0 0,5 -5,0 z M 110,135 l 5,0 0,5 -5,0 z M 115,135 l 5,0 0,5 -5,0 z M 120,135 l 5,0 0,5 -5,0 z M 150,135 l 5,0 0,5 -5,0 z M 160,135 l 5,0 0,5 -5,0 z M 165,135 l 5,0 0,5 -5,0 z M 180,135 l 5,0 0,5 -5,0 z M 185,135 l 5,0 0,5 -5,0 z M 195,135 l 5,0 0,5 -5,0 z M 215,135 l 5,0 0,5 -5,0 z M 220,135 l 5,0 0,5 -5,0 z M 10,140 l 5,0 0,5 -5,0 z M 15,140 l 5,0 0,5 -5,0 z M 30,140 l 5,0 0,5 -5,0 z M 35,140 l 5,0 0,5 -5,0 z M 55,140 l 5,0 0,5 -5,0 z M 60,140 l 5,0 0,5 -5,0 z M 75,140 l 5,0 0,5 -5,0 z M 90,140 l 5,0 0,5 -5,0 z M 95,140 l 5,0 0,5 -5,0 z M 120,140 l 5,0 0,5 -5,0 z M 125,140 l 5,0 0,5 -5,0 z M 145,140 l 5,0 0,5 -5,0 z M 150,140 l 5,0 0,5 -5,0 z M 160,140 l 5,0 0,5 -5,0 z M 170,140 l 5,0 0,5 -5,0 z M 175,140 l 5,0 0,5 -5,0 z M 180,140 l 5,0 0,5 -5,0 z M 195,140 l 5,0 0,5 -5,0 z M 205,140 l 5,0 0,5 -5,0 z M 210,140 l 5,0 0,5 -5,0 z M 215,140 l 5,0 0,5 -5,0 z M 220,140 l 5,0 0,5 -5,0 z M 5,145 l 5,0 0,5 -5,0 z M 10,145 l 5,0 0,5 -5,0 z M 40,145 l 5,0 0,5 -5,0 z M 45,145 l 5,0 0,5 -5,0 z M 55,145 l 5,0 0,5 -5,0 z M 60,145 l 5,0 0,5 -5,0 z M 75,145 l 5,0 0,5 -5,0 z M 80,145 l 5,0 0,5 -5,0 z M 85,145 l 5,0 0,5 -5,0 z M 95,145 l 5,0 0,5 -5,0 z M 100,145 l 5,0 0,5 -5,0 z M 105,145 l 5,0 0,5 -5,0 z M 110,145 l 5,0 0,5 -5,0 z M 115,145 l 5,0 0,5 -5,0 z M 125,145 l 5,0 0,5 -5,0 z M 135,145 l 5,0 0,5 -5,0 z M 145,145 l 5,0 0,5 -5,0 z M 150,145 l 5,0 0,5 -5,0 z M 155,145 l 5,0 0,5 -5,0 z M 160,145 l 5,0 0,5 -5,0 z M 165,145 l 5,0 0,5 -5,0 z M 175,145 l 5,0 0,5 -5,0 z M 180,145 l 5,0 0,5 -5,0 z M 215,145 l 5,0 0,5 -5,0 z M 0,150 l 5,0 0,5 -5,0 z M 20,150 l 5,0 0,5 -5,0 z M 25,150 l 5,0 0,5 -5,0 z M 30,150 l 5,0 0,5 -5,0 z M 50,150 l 5,0 0,5 -5,0 z M 55,150 l 5,0 0,5 -5,0 z M 75,150 l 5,0 0,5 -5,0 z M 80,150 l 5,0 0,5 -5,0 z M 90,150 l 5,0 0,5 -5,0 z M 95,150 l 5,0 0,5 -5,0 z M 115,150 l 5,0 0,5 -5,0 z M 120,150 l 5,0 0,5 -5,0 z M 130,150 l 5,0 0,5 -5,0 z M 135,150 l 5,0 0,5 -5,0 z M 140,150 l 5,0 0,5 -5,0 z M 145,150 l 5,0 0,5 -5,0 z M 160,150 l 5,0 0,5 -5,0 z M 165,150 l 5,0 0,5 -5,0 z M 170,150 l 5,0 0,5 -5,0 z M 180,150 l 5,0 0,5 -5,0 z M 185,150 l 5,0 0,5 -5,0 z M 195,150 l 5,0 0,5 -5,0 z M 205,150 l 5,0 0,5 -5,0 z M 210,150 l 5,0 0,5 -5,0 z M 215,150 l 5,0 0,5 -5,0 z M 25,155 l 5,0 0,5 -5,0 z M 35,155 l 5,0 0,5 -5,0 z M 40,155 l 5,0 0,5 -5,0 z M 45,155 l 5,0 0,5 -5,0 z M 60,155 l 5,0 0,5 -5,0 z M 65,155 l 5,0 0,5 -5,0 z M 70,155 l 5,0 0,5 -5,0 z M 75,155 l 5,0 0,5 -5,0 z M 80,155 l 5,0 0,5 -5,0 z M 90,155 l 5,0 0,5 -5,0 z M 95,155 l 5,0 0,5 -5,0 z M 105,155 l 5,0 0,5 -5,0 z M 120,155 l 5,0 0,5 -5,0 z M 135,155 l 5,0 0,5 -5,0 z M 150,155 l 5,0 0,5 -5,0 z M 165,155 l 5,0 0,5 -5,0 z M 170,155 l 5,0 0,5 -5,0 z M 175,155 l 5,0 0,5 -5,0 z M 180,155 l 5,0 0,5 -5,0 z M 190,155 l 5,0 0,5 -5,0 z M 195,155 l 5,0 0,5 -5,0 z M 205,155 l 5,0 0,5 -5,0 z M 220,155 l 5,0 0,5 -5,0 z M 0,160 l 5,0 0,5 -5,0 z M 5,160 l 5,0 0,5 -5,0 z M 10,160 l 5,0 0,5 -5,0 z M 20,160 l 5,0 0,5 -5,0 z M 25,160 l 5,0 0,5 -5,0 z M 30,160 l 5,0 0,5 -5,0 z M 40,160 l 5,0 0,5 -5,0 z M 50,160 l 5,0 0,5 -5,0 z M 60,160 l 5,0 0,5 -5,0 z M 65,160 l 5,0 0,5 -5,0 z M 75,160 l 5,0 0,5 -5,0 z M 100,160 l 5,0 0,5 -5,0 z M 115,160 l 5,0 0,5 -5,0 z M 125,160 l 5,0 0,5 -5,0 z M 135,160 l 5,0 0,5 -5,0 z M 155,160 l 5,0 0,5 -5,0 z M 165,160 l 5,0 0,5 -5,0 z M 170,160 l 5,0 0,5 -5,0 z M 180,160 l 5,0 0,5 -5,0 z M 185,160 l 5,0 0,5 -5,0 z M 205,160 l 5,0 0,5 -5,0 z M 210,160 l 5,0 0,5 -5,0 z M 5,165 l 5,0 0,5 -5,0 z M 15,165 l 5,0 0,5 -5,0 z M 20,165 l 5,0 0,5 -5,0 z M 35,165 l 5,0 0,5 -5,0 z M 40,165 l 5,0 0,5 -5,0 z M 60,165 l 5,0 0,5 -5,0 z M 65,165 l 5,0 0,5 -5,0 z M 85,165 l 5,0 0,5 -5,0 z M 95,165 l 5,0 0,5 -5,0 z M 105,165 l 5,0 0,5 -5,0 z M 125,165 l 5,0 0,5 -5,0 z M 135,165 l 5,0 0,5 -5,0 z M 145,165 l 5,0 0,5 -5,0 z M 150,165 l 5,0 0,5 -5,0 z M 160,165 l 5,0 0,5 -5,0 z M 175,165 l 5,0 0,5 -5,0 z M 190,165 l 5,0 0,5 -5,0 z M 195,165 l 5,0 0,5 -5,0 z M 210,165 l 5,0 0,5 -5,0 z M 215,165 l 5,0 0,5 -5,0 z M 20,170 l 5,0 0,5 -5,0 z M 30,170 l 5,0 0,5 -5,0 z M 50,170 l 5,0 0,5 -5,0 z M 60,170 l 5,0 0,5 -5,0 z M 85,170 l 5,0 0,5 -5,0 z M 90,170 l 5,0 0,5 -5,0 z M 105,170 l 5,0 0,5 -5,0 z M 110,170 l 5,0 0,5 -5,0 z M 120,170 l 5,0 0,5 -5,0 z M 125,170 l 5,0 0,5 -5,0 z M 130,170 l 5,0 0,5 -5,0 z M 160,170 l 5,0 0,5 -5,0 z M 165,170 l 5,0 0,5 -5,0 z M 180,170 l 5,0 0,5 -5,0 z M 185,170 l 5,0 0,5 -5,0 z M 195,170 l 5,0 0,5 -5,0 z M 220,170 l 5,0 0,5 -5,0 z M 5,175 l 5,0 0,5 -5,0 z M 10,175 l 5,0 0,5 -5,0 z M 15,175 l 5,0 0,5 -5,0 z M 20,175 l 5,0 0,5 -5,0 z M 35,175 l 5,0 0,5 -5,0 z M 45,175 l 5,0 0,5 -5,0 z M 50,175 l 5,0 0,5 -5,0 z M 65,175 l 5,0 0,5 -5,0 z M 70,175 l 5,0 0,5 -5,0 z M 75,175 l 5,0 0,5 -5,0 z M 85,175 l 5,0 0,5 -5,0 z M 90,175 l 5,0 0,5 -5,0 z M 100,175 l 5,0 0,5 -5,0 z M 105,175 l 5,0 0,5 -5,0 z M 115,175 l 5,0 0,5 -5,0 z M 120,175 l 5,0 0,5 -5,0 z M 130,175 l 5,0 0,5 -5,0 z M 135,175 l 5,0 0,5 -5,0 z M 140,175 l 5,0 0,5 -5,0 z M 150,175 l 5,0 0,5 -5,0 z M 165,175 l 5,0 0,5 -5,0 z M 170,175 l 5,0 0,5 -5,0 z M 185,175 l 5,0 0,5 -5,0 z M 195,175 l 5,0 0,5 -5,0 z M 200,175 l 5,0 0,5 -5,0 z M 205,175 l 5,0 0,5 -5,0 z M 215,175 l 5,0 0,5 -5,0 z M 0,180 l 5,0 0,5 -5,0 z M 15,180 l 5,0 0,5 -5,0 z M 20,180 l 5,0 0,5 -5,0 z M 30,180 l 5,0 0,5 -5,0 z M 35,180 l 5,0 0,5 -5,0 z M 50,180 l 5,0 0,5 -5,0 z M 55,180 l 5,0 0,5 -5,0 z M 60,180 l 5,0 0,5 -5,0 z M 75,180 l 5,0 0,5 -5,0 z M 95,180 l 5,0 0,5 -5,0 z M 100,180 l 5,0 0,5 -5,0 z M 105,180 l 5,0 0,5 -5,0 z M 110,180 l 5,0 0,5 -5,0 z M 115,180 l 5,0 0,5 -5,0 z M 120,180 l 5,0 0,5 -5,0 z M 125,180 l 5,0 0,5 -5,0 z M 130,180 l 5,0 0,5 -5,0 z M 145,180 l 5,0 0,5 -5,0 z M 170,180 l 5,0 0,5 -5,0 z M 180,180 l 5,0 0,5 -5,0 z M 185,180 l 5,0 0,5 -5,0 z M 190,180 l 5,0 0,5 -5,0 z M 195,180 l 5,0 0,5 -5,0 z M 200,180 l 5,0 0,5 -5,0 z M 210,180 l 5,0 0,5 -5,0 z M 215,180 l 5,0 0,5 -5,0 z M 40,185 l 5,0 0,5 -5,0 z M 55,185 l 5,0 0,5 -5,0 z M 60,185 l 5,0 0,5 -5,0 z M 80,185 l 5,0 0,5 -5,0 z M 90,185 l 5,0 0,5 -5,0 z M 100,185 l 5,0 0,5 -5,0 z M 120,185 l 5,0 0,5 -5,0 z M 130,185 l 5,0 0,5 -5,0 z M 140,185 l 5,0 0,5 -5,0 z M 150,185 l 5,0 0,5 -5,0 z M 155,185 l 5,0 0,5 -5,0 z M 160,185 l 5,0 0,5 -5,0 z M 165,185 l 5,0 0,5 -5,0 z M 170,185 l 5,0 0,5 -5,0 z M 175,185 l 5,0 0,5 -5,0 z M 180,185 l 5,0 0,5 -5,0 z M 200,185 l 5,0 0,5 -5,0 z M 205,185 l 5,0 0,5 -5,0 z M 215,185 l 5,0 0,5 -5,0 z M 0,190 l 5,0 0,5 -5,0 z M 5,190 l 5,0 0,5 -5,0 z M 10,190 l 5,0 0,5 -5,0 z M 15,190 l 5,0 0,5 -5,0 z M 20,190 l 5,0 0,5 -5,0 z M 25,190 l 5,0 0,5 -5,0 z M 30,190 l 5,0 0,5 -5,0 z M 40,190 l 5,0 0,5 -5,0 z M 45,190 l 5,0 0,5 -5,0 z M 55,190 l 5,0 0,5 -5,0 z M 60,190 l 5,0 0,5 -5,0 z M 75,190 l 5,0 0,5 -5,0 z M 80,190 l 5,0 0,5 -5,0 z M 100,190 l 5,0 0,5 -5,0 z M 110,190 l 5,0 0,5 -5,0 z M 120,190 l 5,0 0,5 -5,0 z M 125,190 l 5,0 0,5 -5,0 z M 130,190 l 5,0 0,5 -5,0 z M 135,190 l 5,0 0,5 -5,0 z M 140,190 l 5,0 0,5 -5,0 z M 145,190 l 5,0 0,5 -5,0 z M 150,190 l 5,0 0,5 -5,0 z M 175,190 l 5,0 0,5 -5,0 z M 180,190 l 5,0 0,5 -5,0 z M 190,190 l 5,0 0,5 -5,0 z M 200,190 l 5,0 0,5 -5,0 z M 205,190 l 5,0 0,5 -5,0 z M 210,190 l 5,0 0,5 -5,0 z M 215,190 l 5,0 0,5 -5,0 z M 0,195 l 5,0 0,5 -5,0 z M 30,195 l 5,0 0,5 -5,0 z M 45,195 l 5,0 0,5 -5,0 z M 60,195 l 5,0 0,5 -5,0 z M 90,195 l 5,0 0,5 -5,0 z M 100,195 l 5,0 0,5 -5,0 z M 120,195 l 5,0 0,5 -5,0 z M 125,195 l 5,0 0,5 -5,0 z M 140,195 l 5,0 0,5 -5,0 z M 155,195 l 5,0 0,5 -5,0 z M 160,195 l 5,0 0,5 -5,0 z M 180,195 l 5,0 0,5 -5,0 z M 200,195 l 5,0 0,5 -5,0 z M 210,195 l 5,0 0,5 -5,0 z M 0,200 l 5,0 0,5 -5,0 z M 10,200 l 5,0 0,5 -5,0 z M 15,200 l 5,0 0,5 -5,0 z M 20,200 l 5,0 0,5 -5,0 z M 30,200 l 5,0 0,5 -5,0 z M 40,200 l 5,0 0,5 -5,0 z M 50,200 l 5,0 0,5 -5,0 z M 75,200 l 5,0 0,5 -5,0 z M 80,200 l 5,0 0,5 -5,0 z M 100,200 l 5,0 0,5 -5,0 z M 105,200 l 5,0 0,5 -5,0 z M 110,200 l 5,0 0,5 -5,0 z M 115,200 l 5,0 0,5 -5,0 z M 120,200 l 5,0 0,5 -5,0 z M 150,200 l 5,0 0,5 -5,0 z M 165,200 l 5,0 0,5 -5,0 z M 170,200 l 5,0 0,5 -5,0 z M 175,200 l 5,0 0,5 -5,0 z M 180,200 l 5,0 0,5 -5,0 z M 185,200 l 5,0 0,5 -5,0 z M 190,200 l 5,0 0,5 -5,0 z M 195,200 l 5,0 0,5 -5,0 z M 200,200 l 5,0 0,5 -5,0 z M 205,200 l 5,0 0,5 -5,0 z M 0,205 l 5,0 0,5 -5,0 z M 10,205 l 5,0 0,5 -5,0 z M 15,205 l 5,0 0,5 -5,0 z M 20,205 l 5,0 0,5 -5,0 z M 30,205 l 5,0 0,5 -5,0 z M 40,205 l 5,0 0,5 -5,0 z M 50,205 l 5,0 0,5 -5,0 z M 60,205 l 5,0 0,5 -5,0 z M 75,205 l 5,0 0,5 -5,0 z M 90,205 l 5,0 0,5 -5,0 z M 95,205 l 5,0 0,5 -5,0 z M 115,205 l 5,0 0,5 -5,0 z M 145,205 l 5,0 0,5 -5,0 z M 150,205 l 5,0 0,5 -5,0 z M 160,205 l 5,0 0,5 -5,0 z M 175,205 l 5,0 0,5 -5,0 z M 185,205 l 5,0 0,5 -5,0 z M 195,205 l 5,0 0,5 -5,0 z M 205,205 l 5,0 0,5 -5,0 z M 0,210 l 5,0 0,5 -5,0 z M 10,210 l 5,0 0,5 -5,0 z M 15,210 l 5,0 0,5 -5,0 z M 20,210 l 5,0 0,5 -5,0 z M 30,210 l 5,0 0,5 -5,0 z M 40,210 l 5,0 0,5 -5,0 z M 60,210 l 5,0 0,5 -5,0 z M 75,210 l 5,0 0,5 -5,0 z M 125,210 l 5,0 0,5 -5,0 z M 130,210 l 5,0 0,5 -5,0 z M 135,210 l 5,0 0,5 -5,0 z M 155,210 l 5,0 0,5 -5,0 z M 160,210 l 5,0 0,5 -5,0 z M 165,210 l 5,0 0,5 -5,0 z M 175,210 l 5,0 0,5 -5,0 z M 180,210 l 5,0 0,5 -5,0 z M 190,210 l 5,0 0,5 -5,0 z M 195,210 l 5,0 0,5 -5,0 z M 0,215 l 5,0 0,5 -5,0 z M 30,215 l 5,0 0,5 -5,0 z M 40,215 l 5,0 0,5 -5,0 z M 45,215 l 5,0 0,5 -5,0 z M 55,215 l 5,0 0,5 -5,0 z M 60,215 l 5,0 0,5 -5,0 z M 70,215 l 5,0 0,5 -5,0 z M 75,215 l 5,0 0,5 -5,0 z M 85,215 l 5,0 0,5 -5,0 z M 130,215 l 5,0 0,5 -5,0 z M 140,215 l 5,0 0,5 -5,0 z M 165,215 l 5,0 0,5 -5,0 z M 185,215 l 5,0 0,5 -5,0 z M 190,215 l 5,0 0,5 -5,0 z M 205,215 l 5,0 0,5 -5,0 z M 220,215 l 5,0 0,5 -5,0 z M 0,220 l 5,0 0,5 -5,0 z M 5,220 l 5,0 0,5 -5,0 z M 10,220 l 5,0 0,5 -5,0 z M 15,220 l 5,0 0,5 -5,0 z M 20,220 l 5,0 0,5 -5,0 z M 25,220 l 5,0 0,5 -5,0 z M 30,220 l 5,0 0,5 -5,0 z M 40,220 l 5,0 0,5 -5,0 z M 45,220 l 5,0 0,5 -5,0 z M 55,220 l 5,0 0,5 -5,0 z M 60,220 l 5,0 0,5 -5,0 z M 70,220 l 5,0 0,5 -5,0 z M 75,220 l 5,0 0,5 -5,0 z M 80,220 l 5,0 0,5 -5,0 z M 85,220 l 5,0 0,5 -5,0 z M 90,220 l 5,0 0,5 -5,0 z M 95,220 l 5,0 0,5 -5,0 z M 120,220 l 5,0 0,5 -5,0 z M 125,220 l 5,0 0,5 -5,0 z M 130,220 l 5,0 0,5 -5,0 z M 145,220 l 5,0 0,5 -5,0 z M 155,220 l 5,0 0,5 -5,0 z M 170,220 l 5,0 0,5 -5,0 z M 180,220 l 5,0 0,5 -5,0 z M 185,220 l 5,0 0,5 -5,0 z M 210,220 l 5,0 0,5 -5,0 z " />
	</g>
</svg>
